<svg xmlns="http://www.w3.org/2000/svg" viewBox="0 0 593.8 344.37"><defs><style>.cls-1{fill:#bedda9;stroke-width:3px;}.cls-1,.cls-10,.cls-9{stroke:#231815;}.cls-1,.cls-10,.cls-11,.cls-9{stroke-miterlimit:10;}.cls-2{fill:#c9bc9c;}.cls-3{fill:#7f4f21;}.cls-4{fill:#618ac7;}.cls-11,.cls-5{fill:#fff;}.cls-6{fill:#efefef;}.cls-7{fill:#9fa0a0;}.cls-8{fill:#b5b5b6;}.cls-9{fill:#fbd5b2;}.cls-10,.cls-9{stroke-width:4px;}.cls-10{fill:none;}.cls-11{stroke:#dcdddd;stroke-width:0.5px;}.cls-12{font-size:12px;font-family:DengXian-Bold, DengXian;font-weight:700;}.cls-12,.cls-13{fill:#231815;}.cls-13{font-size:76px;font-family:BernardMT-Condensed, Bernard MT Condensed;}</style></defs><g id="图层_2" data-name="图层 2"><g id="图层_1-2" data-name="图层 1"><path class="cls-1" d="M60.93,134.13A42.74,42.74,0,0,0,47,136.05c-6.69,2.2-12.41,5.78-16.37,11.76a19.21,19.21,0,0,0-3.09,14,21.2,21.2,0,0,0,5.92,11.4,30.05,30.05,0,0,0,10,6.81,34.53,34.53,0,0,0,9.17,2.64,5,5,0,0,1,3.76,2.24c.78,1.19,1.78,2.24,2.64,3.39.37.49.55.43.89,0,1-1.34,2.06-2.63,3-4a3.6,3.6,0,0,1,2.55-1.49,29.89,29.89,0,0,0,3.86-.75c7.27-1.87,13.64-5.26,18.15-11.45,4.19-5.74,5.23-12.07,2.71-18.8a23.93,23.93,0,0,0-9.63-11.55A36.93,36.93,0,0,0,60.93,134.13Z"/><path d="M61.24,155.2c2.93.11,5.29,2,5.31,4.91a5.33,5.33,0,1,1-5.31-4.91Z"/><path d="M78.15,165a5.06,5.06,0,0,1-5.37-4.91,5.24,5.24,0,0,1,5.32-4.85,5.14,5.14,0,0,1,5.3,4.93A5,5,0,0,1,78.15,165Z"/><path d="M44.51,165a4.93,4.93,0,0,1-4.06-2.63,4.38,4.38,0,0,1,.17-4.75A5.56,5.56,0,0,1,47,155.49a4.91,4.91,0,0,1,3.49,5C50.27,163,47.94,165,44.51,165Z"/><path class="cls-2" d="M557.94,140.75c-.19-1.5-.19-1.5-1.6-1.5-.8,0-1.6,0-2.4,0-.6,0-.81.22-.77.79a4.06,4.06,0,0,1-.08,1,1.64,1.64,0,0,1-1.71,1.28,1.57,1.57,0,0,1-1.47-1.53c-.07-1.52-.07-1.49-1.58-1.52a34.19,34.19,0,0,1-3.65,0c-.66-.08-.91.22-.84.85a4,4,0,0,1,0,.49c0,1-.18,1.26-1.31,1.62a1.61,1.61,0,0,1-1.85-.67,2.14,2.14,0,0,1-.24-1.44c0-.62-.15-.89-.83-.87-1.56,0-3.12,0-4.68,0-.52,0-.73.18-.69.71a7.85,7.85,0,0,1,0,.84,1.61,1.61,0,0,1-1.56,1.53,1.57,1.57,0,0,1-1.61-1.53c0-.39,0-.79,0-1.4-.52.8-.89.13-1.29.08-1.48-.18-3,0-4.44-.1-.21,0-.43,0-.64,0s-.42.07-.41.39,0,.71,0,1.06a1.59,1.59,0,0,1-3.15.27,3.43,3.43,0,0,1-.05-.56c0-1.27.22-1.26-1.26-1.26h-3.83c-.93,0-1.11.15-1.11,1.12V192.8c0,1.87.13,2,2,2l31.92,0,7.85,0c.54,0,1.09,0,1.63-.08,1-.08,1.15-.26,1.15-1.28,0-2.74,0-5.47,0-8.21,0-1.82,0-3.63,0-5.45a1.52,1.52,0,0,1,.53-1.24c1-.93,1.91-1.89,2.86-2.84.13-.13.26-.33.47-.26s.18.35.18.55c0,6.06,0,12.13,0,18.19a4.68,4.68,0,0,1-4.67,4.5c-2.9.06-5.8,0-8.7,0q-17.21,0-34.4,0a5.27,5.27,0,0,1-5-5c.09-7.24,0-14.48,0-21.72,0-10.38.07-20.76,0-31.14,0-3.91,2.13-5.46,5.57-5.61,1.31-.05,2.64,0,4,0,.55,0,.76-.19.74-.74,0-.73,0-1.46,0-2.2a1.64,1.64,0,0,1,3.28,0c0,.76,0,1.51,0,2.27,0,.49.2.66.67.66,1.82,0,3.64,0,5.45,0,.45,0,.65-.16.64-.62,0-.71,0-1.42,0-2.12,0-1.14.65-1.81,1.65-1.8a1.6,1.6,0,0,1,1.62,1.81c0,.68,0,1.37,0,2.05,0,.46.14.7.64.69,1.66,0,3.31,0,5,0,.42,0,.6-.16.59-.58,0-.76,0-1.51,0-2.27,0-1.07.56-1.66,1.51-1.67a1.59,1.59,0,0,1,1.77,1.67c0,.71,0,1.42,0,2.12,0,.5.17.73.7.73,1.6,0,3.21,0,4.81,0,.55,0,.72-.25.67-.74a10.14,10.14,0,0,1,0-2.4,1.61,1.61,0,0,1,3.21.18c0,.71,0,1.42,0,2.12s.23.86.86.84c1.51,0,3-.05,4.53,0a4.94,4.94,0,0,1,4.72,3,4.41,4.41,0,0,1,.36,1.86c0,1.49,0,3,0,4.46a1.26,1.26,0,0,1-.34,1c-1,1-2,2-3,3-.16.15-.34.43-.58.33s-.16-.46-.17-.7c0-2.6,0-5.19,0-7.79,0-.3.14-.72-.44-.8-.78-.09-.87-.05-1,.77C558,140.44,558,140.53,557.94,140.75Z"/><path class="cls-3" d="M540.2,173a.84.84,0,0,0-.72-.19h-7.15c-.3,0-.61-.07-.83.25a.43.43,0,0,1-.64,0,1.84,1.84,0,0,0-1.34-.29c-1.75,0-3.49,0-5.24,0a1.33,1.33,0,0,1-1.38-1,1.46,1.46,0,0,1,.57-1.69,1.73,1.73,0,0,1,1.15-.22c5.8,0,11.61,0,17.41,0a2,2,0,0,0,1.55-.63q8.61-8.44,17.25-16.87c.32-.32.53-.27.81,0,.9.9,1.8,1.8,2.71,2.69,2.48,2.41,4.95,4.81,7.45,7.2.42.41.12.61-.13.86-1.76,1.74-3.51,3.49-5.28,5.22-.83.81-1.53,1.76-2.4,2.49-1.13.94-2.14,2-3.18,3q-7.15,7-14.29,14.12a2.36,2.36,0,0,1-1,.61l-12.42,3.85c-.45.14-.9.31-1.35.43-.93.23-1.47-.28-1.2-1.18.67-2.24,1.38-4.46,2.09-6.68s1.46-4.43,2.17-6.66a2.9,2.9,0,0,1,.81-1.3l4.19-3.8A2.67,2.67,0,0,1,540.2,173Zm0,4.55c.4-.06.75-.46,1.12-.82l7.42-7.28L560.37,158c.66-.64.78-1.15.38-1.57s-.85-.31-1.56.38l-19.07,18.65c-.27.27-.54.53-.78.82a.74.74,0,0,0-.06.87A.88.88,0,0,0,540.19,177.56Zm-5.38,8.36a.71.71,0,0,0,.21.58l2.15,2.15a.62.62,0,0,0,.71.11c1.43-.47,2.86-.95,4.3-1.39.55-.17.57-.33.18-.72-1.85-1.79-3.68-3.58-5.5-5.4-.38-.38-.49-.28-.63.15-.44,1.4-.89,2.79-1.34,4.18C534.85,185.71,534.83,185.85,534.81,185.92Z"/><path class="cls-3" d="M578.65,154.8a2.68,2.68,0,0,1-1,2.67c-1.1,1.09-2.24,2.15-3.34,3.24-.37.38-.62.28-.94,0q-4.87-4.86-9.77-9.7c-.44-.44-.47-.7,0-1.13,1.09-1,2.14-2.12,3.22-3.18,1.64-1.62,3.26-1.62,4.91,0q3,3,6.11,6C578.42,153.27,579,153.89,578.65,154.8Z"/><path class="cls-3" d="M536.76,162.62c-4.11,0-8.21-.05-12.32,0a1.57,1.57,0,0,1-1.38-2.42,1.19,1.19,0,0,1,1.1-.64h2.19c7.58,0,15.15,0,22.72,0a1.64,1.64,0,0,1,1.46,2.42,1.48,1.48,0,0,1-1.39.67H536.76Z"/><path class="cls-3" d="M536.83,149.81h12.3a1.52,1.52,0,1,1,0,3H528.34c-1.34,0-2.68,0-4,.06a1.45,1.45,0,0,1-1.47-1.56,1.42,1.42,0,0,1,1.47-1.53Z"/><path class="cls-4" d="M194.09,70.16q0,9.89,0,19.76c0,2.56-1.29,3.85-3.87,3.85H159.49a4.28,4.28,0,0,1-1.87-.33,3.17,3.17,0,0,1-2-3c0-1.31,0-1.31-1.34-1.31h-3.83a3.22,3.22,0,0,1-3.4-3,12.13,12.13,0,0,1-.07-1.48q0-15,0-29.94V39.19a10.57,10.57,0,0,1,0-1.13,3.3,3.3,0,0,1,3.54-3.2h22.89a2.18,2.18,0,0,1,1.56.64c1.28,1.13,2.6,2.23,3.87,3.37a1.76,1.76,0,0,0,1.48.56A5,5,0,0,1,184.74,41c2.81,2.59,5.76,5,8.67,7.53a1.87,1.87,0,0,1,.7,1.58Q194.08,60.15,194.09,70.16Z"/><path class="cls-5" d="M172,90.18a.73.73,0,0,1,.66.48,1.18,1.18,0,0,0,1.24.6h16.19c1.22,0,1.44-.25,1.44-1.51V53.63c0-1.27,0-1.27-1.3-1.27H185c-2.77,0-4.26-1.49-4.28-4.31v-4.7c0-1.31,0-1.31-1.36-1.31H159.56c-1.27,0-1.37.1-1.38,1.4v46c0,.32,0,.64,0,1a.77.77,0,0,0,.74.82,7.45,7.45,0,0,0,.95.08h11.75c.27,0,.58.09.86-.2C172.36,90.78,171.8,90.66,172,90.18Z"/><path d="M174.53,60.5h-10.6a1.17,1.17,0,0,1-1.06-1.82c.16-.33.46-.3.75-.3h21.47a1.15,1.15,0,0,1,1.12,1.77c-.22.49-.69.35-1.07.35Z"/><path d="M174.53,72.34h10.62a1.18,1.18,0,0,1,1,1.84c-.2.34-.54.28-.85.28-1.74,0-3.48,0-5.23,0H164a1.15,1.15,0,0,1-1.16-1.75c.22-.5.69-.36,1.07-.36Z"/><path d="M174.62,77h10.53c.36,0,.84-.14,1,.29a2.15,2.15,0,0,1,0,1.54c-.13.35-.54.28-.85.28H164c-1.15,0-1.16-.07-1.2-1.16,0-.8.32-1,1-1C167.42,77,171,77,174.62,77Z"/><path d="M174.58,69.78H164A1.18,1.18,0,0,1,162.84,68a.44.44,0,0,1,.41-.25c.32,0,.64-.08,1-.08h21c.83,0,1.09.29,1.1,1.12s-.33,1-1.09,1C181.66,69.77,178.12,69.78,174.58,69.78Z"/><path d="M174.62,81.7h10.53a1.13,1.13,0,0,1,1,1.74c-.19.38-.54.29-.85.29-1.73,0-3.48-.06-5.21.07s-3.53-.17-5.31-.08-3.65,0-5.47,0h-5.49c-.35,0-.83.17-1-.3a2,2,0,0,1,0-1.45c.16-.4.6-.27.93-.27Z"/><path d="M174.49,65.09H163.88a1.13,1.13,0,0,1-1-1.76c.23-.38.62-.26,1-.26h10.43c3.63,0,7.25,0,10.88,0,.78,0,1.14.16,1.15,1s-.45,1-1.19,1C181.57,65.08,178,65.09,174.49,65.09Z"/><path d="M168.79,55.82c-1.69,0-3.37,0-5,0-.82,0-1-.37-1-1.07s.14-1.08.95-1.08c3.43,0,6.85,0,10.28,0,.81,0,1,.37,1,1.07s-.13,1.1-1,1.08C172.27,55.79,170.53,55.82,168.79,55.82Z"/><path d="M168.88,51.13c-1.71,0-3.42,0-5.13,0-.72,0-1-.25-1-1s.08-1.18,1-1.17q5.17,0,10.35,0c.8,0,.87.43.87,1.06s0,1.09-.86,1.07C172.36,51.11,170.62,51.13,168.88,51.13Z"/><path class="cls-5" d="M379.67,99.21H365.55V0h99.21V99.21H451.64c.42-.53,1.14-1,1.22-1.62a10.07,10.07,0,0,0-.62-6,6.76,6.76,0,0,0-6.45-3.8c-1.63,0-3.27,0-5,0-.07-1.15-.14-2.2-.18-3.26-.41-12.14-.79-24.28-1.22-36.42-.11-3.06-.2-6.12-.57-9.15a12.26,12.26,0,0,0-5.76-9.27c-1.63-1-3.18-2.2-4.8-3.25-.64-.41-.69-.73-.3-1.37,1.54-2.51,1.44-2.89-.92-4.5,0,0,0-.05-.12-.17l2.92-4.92,1.3.74c1.53.86,2.4.67,3.3-.81s1.72-2.87,2.52-4.34a2,2,0,0,0-.75-3Q429.79,4.31,423.32.57a1.92,1.92,0,0,0-3,.76q-1.38,2.22-2.64,4.5a2,2,0,0,0,.83,3c.46.28.93.55,1.45.85l-3,5c-2.45-1.3-3.09-1.18-4.24.78q-9.07,15.39-18.12,30.8c-.89,1.52-.63,2.46.88,3.36l1.62,1c-1.16,2-2.26,3.82-3.34,5.68-.77,1.32-.62,2.36.55,3.1q2.21,1.39,4.49,2.65a1.92,1.92,0,0,0,2.69-.72c.42-.64.79-1.33,1.18-2l2.41-4.06,1.43.82c1.9,1.09,2.62.9,3.75-1l2.52-4.26c1.88,1.16,3.77,2.15,5.45,3.42,2,1.53,2.38,4.34,1,6.73-2,3.46-4,6.89-6.06,10.33L411,75.11l-3.2-1.89c.95-2.06.85-2.84-.56-3.67q-11.77-7-23.57-13.86c-1.32-.77-2.27-.48-3.08.85s-1.73,2.87-2.56,4.33-.57,2.37.85,3.23c1.06.66,2.15,1.28,3.26,1.94-.46.8-.9,1.55-1.34,2.3-1.07,1.82-.85,2.68,1,3.77l12.33,7.24c1.52.89,2.43.63,3.35-.91L399,75.91,401,77.09c-2.05,3.48-4.07,6.92-6.13,10.33a1.32,1.32,0,0,1-.95.4c-2.78,0-5.55,0-8.32,0-3.54,0-6.18,1.86-6.95,5a24.16,24.16,0,0,0-.29,3.64A2.6,2.6,0,0,0,379.67,99.21Z"/><path d="M379.67,99.21a2.6,2.6,0,0,1-1.36-2.74,24.16,24.16,0,0,1,.29-3.64c.77-3.13,3.41-5,6.95-5,2.77,0,5.54,0,8.32,0a1.32,1.32,0,0,0,.95-.4c2.06-3.41,4.08-6.85,6.13-10.33L399,75.91l-1.51,2.53c-.92,1.54-1.83,1.8-3.35.91l-12.33-7.24c-1.84-1.09-2.06-2-1-3.77.44-.75.88-1.5,1.34-2.3-1.11-.66-2.2-1.28-3.26-1.94-1.42-.86-1.67-1.79-.85-3.23s1.68-2.9,2.56-4.33,1.76-1.62,3.08-.85q11.81,6.91,23.57,13.86c1.41.83,1.51,1.61.56,3.67l3.2,1.89,2.22-3.76c2-3.44,4.07-6.87,6.06-10.33,1.38-2.39,1-5.2-1-6.73-1.68-1.27-3.57-2.26-5.45-3.42l-2.52,4.26c-1.13,1.91-1.85,2.1-3.75,1l-1.43-.82-2.41,4.06c-.39.66-.76,1.35-1.18,2a1.92,1.92,0,0,1-2.69.72q-2.28-1.26-4.49-2.65c-1.17-.74-1.32-1.78-.55-3.1,1.08-1.86,2.18-3.71,3.34-5.68l-1.62-1c-1.51-.9-1.77-1.84-.88-3.36q9.06-15.4,18.12-30.8c1.15-2,1.79-2.08,4.24-.78l3-5c-.52-.3-1-.57-1.45-.85a2,2,0,0,1-.83-3q1.26-2.28,2.64-4.5a1.92,1.92,0,0,1,3-.76q6.48,3.75,12.91,7.57a2,2,0,0,1,.75,3c-.8,1.47-1.64,2.91-2.52,4.34s-1.77,1.67-3.3.81l-1.3-.74-2.92,4.92c.08.12.09.16.12.17,2.36,1.61,2.46,2,.92,4.5-.39.64-.34,1,.3,1.37,1.62,1.05,3.17,2.21,4.8,3.25A12.26,12.26,0,0,1,438.84,39c.37,3,.46,6.09.57,9.15.43,12.14.81,24.28,1.22,36.42,0,1.06.11,2.11.18,3.26,1.71,0,3.35,0,5,0a6.76,6.76,0,0,1,6.45,3.8,10.07,10.07,0,0,1,.62,6c-.08.59-.8,1.09-1.22,1.62Zm45.89-69.95a17.59,17.59,0,0,1-1,1.65c-.49.63-.38,1.05.14,1.65a8.26,8.26,0,0,1-2.45,12.5,8.49,8.49,0,0,1-6.37.64l-1.08,1.83,4.47,2.64A9,9,0,0,1,423,62.26c-3.08,5.54-6.34,11-9.58,16.44a1.92,1.92,0,0,1-2.92.62c-1.55-.89-3.1-1.81-4.73-2.76-2.2,3.76-4.37,7.45-6.56,11.18h37.62c-.12-3.73-.22-7.37-.34-11-.31-9-.6-18-.95-27-.13-3.47-.29-7-.6-10.41a7.25,7.25,0,0,0-2.55-5.16C430.23,32.49,427.92,31,425.56,29.26ZM398.77,47l8.77,5.15,2.52-4.25c.83-1.41,1.65-2.83,2.48-4.25a8.28,8.28,0,0,1,7.58-14,1,1,0,0,0,.83-.37c1.15-1.86,2.24-3.75,3.41-5.73l-8.77-5.15ZM382.34,95.26H449a2.79,2.79,0,0,0-2.52-3.47,9.29,9.29,0,0,0-1.06-.05H386.6a15.34,15.34,0,0,0-1.92.08A2.72,2.72,0,0,0,382.34,95.26Zm36.07-61.82a4.35,4.35,0,1,0-.12,8.7,4.42,4.42,0,0,0,4.42-4.3A4.33,4.33,0,0,0,418.41,33.44Zm-36.2,28.08,20.71,12.17.95-1.61L383.17,59.9Zm41.16-49.83-3,5,3.11,1.81,3-5Zm8.5.46.87-1.53-9.9-5.81L422,6.3ZM384.8,69.33l10.07,5.92.7-1.34-10-5.89ZM398,57l1.24.68,2.58-4.39-1.22-.69Z"/><path class="cls-6" d="M425.56,29.26c2.36,1.69,4.67,3.23,6.84,4.94A7.25,7.25,0,0,1,435,39.36c.31,3.46.47,6.94.6,10.41.35,9,.64,18,.95,27,.12,3.64.22,7.28.34,11H399.22c2.19-3.73,4.36-7.42,6.56-11.18,1.63,1,3.18,1.87,4.73,2.76a1.92,1.92,0,0,0,2.92-.62c3.24-5.46,6.5-10.9,9.58-16.44a9,9,0,0,0-3.72-12.09l-4.47-2.64,1.08-1.83a8.49,8.49,0,0,0,6.37-.64,8.26,8.26,0,0,0,2.45-12.5c-.52-.6-.63-1-.14-1.65A17.59,17.59,0,0,0,425.56,29.26Z"/><path class="cls-7" d="M398.77,47l16.82-28.57,8.77,5.15c-1.17,2-2.26,3.87-3.41,5.73a1,1,0,0,1-.83.37,8.28,8.28,0,0,0-7.58,14c-.83,1.42-1.65,2.84-2.48,4.25l-2.52,4.25Z"/><path class="cls-7" d="M382.34,95.26a2.72,2.72,0,0,1,2.34-3.44,15.34,15.34,0,0,1,1.92-.08h58.79a9.29,9.29,0,0,1,1.06.05A2.79,2.79,0,0,1,449,95.26Z"/><path class="cls-5" d="M418.41,33.44a4.33,4.33,0,0,1,4.3,4.4,4.36,4.36,0,0,1-8.72-.11A4.37,4.37,0,0,1,418.41,33.44Z"/><path class="cls-8" d="M382.21,61.52l1-1.62,20.7,12.18-.95,1.61Z"/><path class="cls-5" d="M423.37,11.69l3.11,1.83-3,5-3.11-1.81Z"/><path class="cls-5" d="M384.8,69.33l.74-1.31,10,5.89-.7,1.34Z"/><path class="cls-5" d="M398,57l2.6-4.4,1.22.69-2.58,4.39Z"/><path class="cls-9" d="M10.8,332.29l94.52,0c2-19.31,7.15-36,15.94-49.59a152.05,152.05,0,0,1,34.88-38c19.33-15,40.47-26.56,58.48-38.52.81-.6,1.54-1.29,2-1.68a1.12,1.12,0,0,0,.27-.3,3.86,3.86,0,0,0,.29-2,13.39,13.39,0,0,1,.43-3.3c.21-1,1.46-3.69,1.76-4.63s2-4.55,2.74-6a45.45,45.45,0,0,1,3.3-5.14,10.1,10.1,0,0,1,3.31-2.53,8.24,8.24,0,0,1,2.78-.56,14.18,14.18,0,0,1,4.08.38,7.28,7.28,0,0,1,3,1.25,16.15,16.15,0,0,1,1.89,1.58A8.94,8.94,0,0,1,242,185a9.31,9.31,0,0,1,.9,2c.3.81.86.94.94.51s.17-1.46.3-2a9.45,9.45,0,0,1,1.22-2,10.37,10.37,0,0,1,3.83-2.52,23.68,23.68,0,0,1,6.29-.51c3,.17,3.67,1.07,5.34,2.27s1.2,1.25,1.89,2.1a6.57,6.57,0,0,1,1.33,3.31,12.93,12.93,0,0,1,.26,1.5c.08.68.38.68,1.37,0a8.37,8.37,0,0,1,2.49-1.54,9.71,9.71,0,0,1,4.33-.6,9.1,9.1,0,0,1,7.29,4.16,4.59,4.59,0,0,1,.27,2.6c0,.38,0,1.42,0,1.82a3.55,3.55,0,0,0,.06,1.18c.07.21.19.17.44.21s.71-.33,1.44-.84a6.29,6.29,0,0,1,2.13-1.37,6.42,6.42,0,0,1,2.7,0,3.25,3.25,0,0,1,2,1.42,12.24,12.24,0,0,1,1,1.45,8,8,0,0,1,1.46,2.83,11.62,11.62,0,0,1,.39,3.44c0,1.37-.3,3.3-.35,4.67a31,31,0,0,1-.68,4.17s2-.05,3.56,0a52.21,52.21,0,0,0,6.53-.3,15.49,15.49,0,0,0,3.24-1.16,10.11,10.11,0,0,0,1.81-1.33,5.63,5.63,0,0,0,1.45-2.74,7.21,7.21,0,0,0-1-5.28c-.38-.6-.81-1.41-1-1.76a4.46,4.46,0,0,1-.61-1.71,1.88,1.88,0,0,1,.26-1.24c.22-.39.82-.26.82-.26s.6.17.73.38a13.68,13.68,0,0,0,2.74,3.31,20.23,20.23,0,0,0,3.22,2.35,13.6,13.6,0,0,0,4.16,1.33,15.6,15.6,0,0,0,4.54,0,11.6,11.6,0,0,0,4.16-1.8,5.49,5.49,0,0,0,1.67-3.38,40.35,40.35,0,0,0-.24-4.15,14.22,14.22,0,0,0-1.14-3.95,25.5,25.5,0,0,1-1.09-3,2.35,2.35,0,0,1-.23-1.31,1.81,1.81,0,0,1,.63-.23c.23,0,.52.29.63.63a15,15,0,0,0,1.54,2.69,17.55,17.55,0,0,0,1.89,2.06,10.78,10.78,0,0,0,2.69,1.88,8.94,8.94,0,0,0,4.06.63,11.69,11.69,0,0,0,3.54-.46,7.77,7.77,0,0,0,2.23-.91,8.75,8.75,0,0,0,1.22-.86,8.3,8.3,0,0,0,1.47-1.49,11.1,11.1,0,0,0,1.54-3.31,28.77,28.77,0,0,0,.23-5.15c-.06-1.2-.63-5.89-.68-6.8a49,49,0,0,0-1.26-4.75c-.23-.91-2.06-5.09-2.86-5.66s-4.46-5.09-5.83-6.23a83.39,83.39,0,0,1-7-7.29c-1.11-1.46-4.71-6.69-5.66-7.8s-5.66-8.41-6.6-9.7-4.4-5.66-5.58-7.29a7.17,7.17,0,0,0-3.58-2.23s-.16,0-1.42-.22-2.17.57-3.37,1.37-4.15,2.29-5.61,3.26a62.22,62.22,0,0,1-8.8,4.57c-3.66,1.55-5.66,1.83-10.58,2.06a21.26,21.26,0,0,1-8.8-1.26c-.75-.28-5.41-3.34-5.84-3.54s-3.17-2.52-4.05-3.26-.91-.87-1.85-1.65a11.85,11.85,0,0,1-2.19-3.6,13.48,13.48,0,0,1-.6-5.27c.22-1.55,2-3.56,3.39-5.15s7.25-4.29,9.22-4.42a55.44,55.44,0,0,0,7.81-1.32c3.6-.78,19.08-8.54,19.08-8.54l12.15-6.8a3.23,3.23,0,0,1,1.22,0l-.34-.49a3.86,3.86,0,0,0-.55-.73c-.26-.21-.9-1.11-1.42-1.71a8.3,8.3,0,0,0-1.11-1,14.57,14.57,0,0,0-2-1.46,8.57,8.57,0,0,0-1.67-.6,2.54,2.54,0,0,0-2.14.3c-.95.52-1.5,1.25-2.49,1.93s-2.29,1.73-3.54,2.7-5.26,4-6.18,4.58-2.33,1.6-5.55,4-5.44,1.89-5.44,1.89-2.23,0-3.39-.13-2.31,0-3.86,0-1.07-.6-1.59-.78a9.37,9.37,0,0,0-2.48-.47c-1.07,0-5.11.22-7.42.35a70.1,70.1,0,0,0-7.89,1.28,55.35,55.35,0,0,0-5.36,1.89,40.12,40.12,0,0,0-5.32,2.36,22.54,22.54,0,0,0-5.47,3.6c-1,.9-4.58,4.35-5.38,5s-2.83,2.78-3.94,3.81a39.4,39.4,0,0,0-4.38,5.34,43.35,43.35,0,0,1-4,5.32c-1.37,1.46-2.83,2.74-4.37,4.11a19.29,19.29,0,0,1-5.83,3.52c-2,.69-3,.77-11.72,1.26-21,4.76-46.48,17.24-70.67,35.91C82.08,204.16,52.13,235.13,20,301A91.42,91.42,0,0,0,10.8,332.29Z"/><line class="cls-10" x1="492.61" y1="332.31" x2="577.73" y2="332.31"/><path class="cls-9" d="M290.65,213.21a30.76,30.76,0,0,0,.68-4.16c.05-1.38.39-3.31.35-4.68a11.56,11.56,0,0,0-.39-3.43,8,8,0,0,0-1.46-2.83,11.45,11.45,0,0,0-1-1.46,3.24,3.24,0,0,0-2-1.41,6.26,6.26,0,0,0-2.7,0A6.41,6.41,0,0,0,282,196.6c-.73.52-1.2.87-1.44.84s-.37,0-.45-.2a4,4,0,0,1-.05-1.19c0-.39,0-1.44,0-1.81a4.52,4.52,0,0,0-.28-2.6,9.06,9.06,0,0,0-7.29-4.16,9.59,9.59,0,0,0-4.33.6,8.44,8.44,0,0,0-2.48,1.54c-1,.73-1.29.73-1.38,0a9.77,9.77,0,0,0-.25-1.5,6.62,6.62,0,0,0-1.33-3.3c-.69-.86-.22-.9-1.89-2.1s-2.37-2.1-5.35-2.27a23.34,23.34,0,0,0-6.29.51,10.42,10.42,0,0,0-3.83,2.52,10,10,0,0,0-1.21,2c-.13.52-.22,1.55-.3,2s-.64.3-.94-.52a9.46,9.46,0,0,0-.9-2,8.67,8.67,0,0,0-1.51-1.72,17.22,17.22,0,0,0-1.88-1.59,7.3,7.3,0,0,0-3-1.24,14.7,14.7,0,0,0-4.08-.39,8.6,8.6,0,0,0-2.79.56,10.32,10.32,0,0,0-3.3,2.53,46.49,46.49,0,0,0-3.3,5.15c-.77,1.46-2.44,5.06-2.74,6s-1.55,3.65-1.76,4.63a13,13,0,0,0-.43,3.3,3.8,3.8,0,0,1-.3,2c0,4,1.29,6.25,1.8,6.94a6.91,6.91,0,0,0,2.69,2.17,31.78,31.78,0,0,0,3.77,1.09,10.38,10.38,0,0,0,4.46-.23c1.78-.58,1.55-.4,2.46-1a14.88,14.88,0,0,0,2.4-2.18c.57-.62,1.37-2,1.72-2.28s.57-.52.8-.52.4-.23.57.12.23,0,.29,1.09,0,1.71,0,2.51a6.11,6.11,0,0,0,1.2,2.66,4,4,0,0,0,1.48,1.17,10.44,10.44,0,0,0,2.63,1,16.12,16.12,0,0,0,2.81.4,8.83,8.83,0,0,0,3.6-.51,14.83,14.83,0,0,0,2.46-1.21c.62-.4,1.48-.85,2.17-1.37a3.64,3.64,0,0,1,1.26-.68,1.06,1.06,0,0,1,.8.34c.23.23,1,1.43,1.48,2.11a11.28,11.28,0,0,0,1.55,2,11.74,11.74,0,0,0,1.6,1.14,3.89,3.89,0,0,0,2.11.46,7.64,7.64,0,0,0,2.52-.4,25.44,25.44,0,0,0,2.83-1.32,30.59,30.59,0,0,0,3.3-2.61c.3-.39,1-.82,1.12-.69s.17.13.81,1.29a8.25,8.25,0,0,0,1.29,1.88,7.67,7.67,0,0,0,1.28,1.38c.56.38.73.72,1.59.81a8.83,8.83,0,0,0,2.62,0,12.26,12.26,0,0,0,2.4-.56,14.74,14.74,0,0,0,2.44-1c.65-.39,1.07-.6,1.63-1s1.83-1.57,2.28-2a8.26,8.26,0,0,0,1.54-2.05"/><path class="cls-9" d="M577.73,332.31H492.61c-.17-2.2-.41-4.82-.62-7-.34-3.66-2.4-13.84-7-25.5s-9.38-18.3-10.84-21a72.94,72.94,0,0,0-10-14.24c-5.83-6.6-6.95-7.8-14.92-14.66s-12.35-10.89-23-19S407,217.28,394.77,209.14,376,197.56,375.13,197s-3.05-1.89-5.19-3a39,39,0,0,0-5.49-2.44c-1.76-.6-2.92-.77-4.42-1.16a27.07,27.07,0,0,0-3.82-.64,10.83,10.83,0,0,0-3.73.39,21,21,0,0,0-3.38,1.58,7.19,7.19,0,0,1-2.88,1.12,15.24,15.24,0,0,1-3.61-.19,8.58,8.58,0,0,0,1.47-1.48,11,11,0,0,0,1.54-3.32,28.77,28.77,0,0,0,.23-5.15c-.05-1.2-.63-5.89-.68-6.8a49,49,0,0,0-1.26-4.75c-.23-.91-2.06-5.09-2.86-5.66s-4.46-5.09-5.83-6.23a84.89,84.89,0,0,1-7-7.29c-1.11-1.46-4.71-6.69-5.66-7.8s-5.66-8.41-6.6-9.69-4.4-5.67-5.57-7.29a7.14,7.14,0,0,0-3.59-2.23s-.16,0-1.42-.23-2.17.57-3.37,1.37-4.15,2.29-5.6,3.26a63,63,0,0,1-8.81,4.57c-3.66,1.55-5.66,1.83-10.58,2.06a21.3,21.3,0,0,1-8.8-1.26c-.75-.28-5.4-3.34-5.83-3.54s-3.18-2.52-4.06-3.26-.9-.87-1.85-1.65a11.62,11.62,0,0,1-2.18-3.6,13.11,13.11,0,0,1-.6-5.27c.21-1.55,2-3.56,3.38-5.15s7.25-4.29,9.22-4.41a56.84,56.84,0,0,0,7.81-1.33c3.6-.78,19.08-8.54,19.08-8.54l12.15-6.79a3,3,0,0,1,1.22,0l1.26,0a9,9,0,0,0,3-.69,13.46,13.46,0,0,1,2.18-.69,17.59,17.59,0,0,1,2.06,0c.77.09,3.56,0,4.52.22a14.26,14.26,0,0,1,3.09,1.16,35.24,35.24,0,0,1,3.71,2.07c1.2.8,5.26,3.94,6.12,4.63s7.43,7.83,8,8.41,3.77,3.88,5,5.43a63.11,63.11,0,0,0,7.55,7c1.08.69,6.17,4.23,11.32,5.66s6.06,2,10.58,3.09,9,3,11.38,3.6,13,3.75,16.63,5.12,29.85,12.95,47.35,25,35.33,23.78,56.6,47.57,16.12,17.95,32.93,42,20.36,33.85,25.39,43.92,10.29,27,11.66,33.16C577.17,329.17,577.46,330.74,577.73,332.31Z"/><path class="cls-11" d="M154.49,98.83a18.28,18.28,0,0,0-2.91-1.36c-6.78-2.35-13.49.71-15.23,7.94-.23,1-.47,1.37-1.49,1.3a3.15,3.15,0,0,0-2.35,2,2.11,2.11,0,0,0,1.05,2.31,11,11,0,0,0,3.5,1.53,26.74,26.74,0,0,0,8.22.62c.37,0,.76-.19,1.07.29a7.49,7.49,0,0,0,3.7,2.69c4.53,1.72,9.21,1.75,13.94,1.15a2,2,0,0,1,1,.08,19.42,19.42,0,0,0,7.37.91,50.41,50.41,0,0,0,13.39-2.86c.19-.07.51,0,.49-.4l-3.87-.61a17.68,17.68,0,0,1,3,.11,73.89,73.89,0,0,0,13.3-.45,14.73,14.73,0,0,0,7.13-2.62c2.07-1.53,3.26-3.54,2.78-6.17-.63-3.45-3.93-5.39-7.64-4.59-.56.12-.89.18-.87-.55a2,2,0,0,0-.56-1.27,5,5,0,0,0-7.17-.8c-.18.16-.29.56-.7.42a4,4,0,0,1,2.68-2c.39-.11.7-.17.56-.72a6.6,6.6,0,0,0-3.51-4.68,13.51,13.51,0,0,0-7.58-1.19,6.43,6.43,0,0,0-4.37,2.3c-.11.14-.16.49-.51.31-.05-.36.2-.55.38-.78a6.86,6.86,0,0,1,3.81-2.33c1.36-.36,1.35-.37.56-1.57l-.12-.17c-4.34-6.15-10.4-8.46-17.63-7.25-8.22,1.37-14.32,5.63-16.83,14-.49,1.63-.51,1.63,1.12,2A7.88,7.88,0,0,1,154.49,98.83Z"/><path class="cls-11" d="M539.37,201.41a18.28,18.28,0,0,0-2.91-1.36c-6.78-2.35-13.49.72-15.23,7.94-.23,1-.47,1.38-1.49,1.3a3.15,3.15,0,0,0-2.35,2,2.11,2.11,0,0,0,1.05,2.31,11,11,0,0,0,3.5,1.53,26.14,26.14,0,0,0,8.22.62c.37,0,.76-.19,1.07.29a7.47,7.47,0,0,0,3.71,2.69c4.52,1.72,9.21,1.75,13.93,1.15a2,2,0,0,1,1,.08,19.42,19.42,0,0,0,7.37.91A50.41,50.41,0,0,0,570.61,218c.19-.07.51,0,.49-.4l-3.87-.61a18.77,18.77,0,0,1,3,.11,73.89,73.89,0,0,0,13.3-.45,14.73,14.73,0,0,0,7.13-2.62c2.07-1.53,3.26-3.54,2.78-6.17-.63-3.45-3.93-5.39-7.64-4.59-.56.12-.89.18-.87-.55a2,2,0,0,0-.56-1.27,4.94,4.94,0,0,0-7.17-.8c-.18.16-.29.56-.7.42a4,4,0,0,1,2.68-2c.39-.11.7-.17.56-.72a6.58,6.58,0,0,0-3.51-4.68,13.51,13.51,0,0,0-7.58-1.19,6.43,6.43,0,0,0-4.37,2.3c-.11.14-.16.49-.51.31,0-.35.2-.55.38-.78A6.89,6.89,0,0,1,568,192c1.36-.36,1.35-.37.56-1.57l-.12-.17c-4.34-6.15-10.4-8.46-17.63-7.25-8.22,1.37-14.32,5.63-16.83,14-.49,1.63-.5,1.63,1.12,2A7.88,7.88,0,0,1,539.37,201.41Z"/><path class="cls-11" d="M22.29,198.35a17.83,17.83,0,0,0-2.9-1.37c-6.79-2.35-13.5.72-15.24,8-.23.95-.46,1.37-1.49,1.3a3.17,3.17,0,0,0-2.35,2,2.13,2.13,0,0,0,1.05,2.32A11.35,11.35,0,0,0,4.86,212a26.18,26.18,0,0,0,8.23.62c.36,0,.75-.18,1.07.29a7.29,7.29,0,0,0,3.7,2.69c4.52,1.73,9.21,1.76,13.93,1.15a2.31,2.31,0,0,1,1,.08,19.29,19.29,0,0,0,7.38.92,50.27,50.27,0,0,0,13.38-2.87c.19-.07.51,0,.5-.4l-3.88-.61a17.83,17.83,0,0,1,3,.12,72.87,72.87,0,0,0,13.29-.46A14.54,14.54,0,0,0,73.59,211c2.07-1.54,3.26-3.55,2.78-6.17-.63-3.46-3.92-5.39-7.63-4.6-.56.12-.9.19-.88-.54a2.06,2.06,0,0,0-.55-1.27,4.94,4.94,0,0,0-7.17-.8c-.19.16-.29.55-.71.41a4.1,4.1,0,0,1,2.69-2c.39-.11.69-.17.55-.71a6.58,6.58,0,0,0-3.51-4.68,13.59,13.59,0,0,0-7.58-1.2,6.38,6.38,0,0,0-4.36,2.31c-.12.14-.17.49-.51.3-.05-.35.2-.55.38-.78a6.9,6.9,0,0,1,3.81-2.32c1.35-.37,1.35-.38.55-1.58l-.12-.16c-4.34-6.15-10.4-8.47-17.63-7.26-8.21,1.38-14.32,5.63-16.83,14-.49,1.63-.5,1.63,1.12,2A7.88,7.88,0,0,1,22.29,198.35Z"/><path class="cls-11" d="M404.33,98.83a17.78,17.78,0,0,0-2.9-1.36c-6.79-2.35-13.49.71-15.24,7.94-.23,1-.46,1.37-1.49,1.3a3.18,3.18,0,0,0-2.35,2,2.11,2.11,0,0,0,1.06,2.31,11,11,0,0,0,3.5,1.53,26.72,26.72,0,0,0,8.22.62c.37,0,.75-.19,1.07.29a7.44,7.44,0,0,0,3.7,2.69c4.53,1.72,9.21,1.75,13.94,1.15a2,2,0,0,1,1,.08,19.48,19.48,0,0,0,7.38.91,50.41,50.41,0,0,0,13.39-2.86c.19-.07.51,0,.49-.4l-3.87-.61a17.76,17.76,0,0,1,3,.11,73.89,73.89,0,0,0,13.3-.45,14.65,14.65,0,0,0,7.12-2.62c2.07-1.53,3.27-3.54,2.79-6.17-.64-3.45-3.93-5.39-7.64-4.59-.56.12-.89.18-.87-.55a2.07,2.07,0,0,0-.56-1.27,5,5,0,0,0-7.17-.8c-.19.16-.29.56-.7.42a4,4,0,0,1,2.68-2c.39-.11.7-.17.56-.72a6.63,6.63,0,0,0-3.51-4.68,13.53,13.53,0,0,0-7.59-1.19,6.43,6.43,0,0,0-4.36,2.3c-.12.14-.16.49-.51.31-.05-.36.2-.55.38-.78a6.86,6.86,0,0,1,3.81-2.33c1.35-.36,1.35-.37.55-1.57a1,1,0,0,0-.11-.17c-4.34-6.15-10.4-8.46-17.63-7.25-8.22,1.37-14.33,5.63-16.84,14-.49,1.63-.5,1.63,1.12,2A7.88,7.88,0,0,1,404.33,98.83Z"/><text class="cls-12" transform="translate(15.65 208.44)">交互日志</text><text class="cls-12" transform="translate(146.56 108.93)">共享文献</text><text class="cls-12" transform="translate(399.44 108.93)">仪器信息</text><text class="cls-12" transform="translate(531.44 211.74)">实验日志</text><text class="cls-13" transform="translate(165.32 326.31)">Labridge</text></g></g></svg>